<?xml version="1.0" encoding="utf-8"?>
<!-- Generator: Adobe Illustrator 21.0.1, SVG Export Plug-In . SVG Version: 6.00 Build 0)  -->
<svg version="1.1" xmlns="http://www.w3.org/2000/svg" xmlns:xlink="http://www.w3.org/1999/xlink" x="0px" y="0px"
	 viewBox="0 0 40 40" style="enable-background:new 0 0 40 40;" xml:space="preserve">
<style type="text/css">
	.st0{display:none;}
	.st1{display:inline;}
	.st2{fill:#FFFFFF;}
	.st3{display:none;fill:#FFFFFF;}
</style>
<g id="Calque_1" class="st0">
	<g id="ateliers" class="st1">
		<path class="st2" d="M23.9,14.3c0.1,0,0.2,0,0.3-0.1l2.6-2.6c0.1-0.1,0.1-0.2,0.1-0.3c0-0.1,0-0.2-0.1-0.3l-2.6-2.6
			c-0.1-0.1-0.2-0.1-0.3-0.1H20V7.9c0-0.2-0.2-0.4-0.4-0.4c-0.2,0-0.4,0.2-0.4,0.4v0.4h-6.4c-0.2,0-0.3,0.1-0.4,0.3
			c-0.1,0.2,0,0.3,0.1,0.4l2.3,2.3l-2.3,2.3c-0.1,0.1-0.2,0.3-0.1,0.4c0.1,0.2,0.2,0.3,0.4,0.3h6.4v0.9h-3.9c-0.1,0-0.2,0-0.3,0.1
			l-2.6,2.6c-0.2,0.2-0.2,0.4,0,0.6L15,21c0.1,0.1,0.2,0.1,0.3,0.1h3.9v6.3c-2.3,0.1-4.1,1.1-4.1,2.5c0,1.4,2,2.5,4.5,2.5
			c2.5,0,4.5-1.1,4.5-2.5c0-1.3-1.8-2.3-4.1-2.5v-6.3h6.4c0.2,0,0.3-0.1,0.4-0.3c0.1-0.2,0-0.3-0.1-0.4l-2.3-2.3l2.3-2.3
			c0.1-0.1,0.2-0.3,0.1-0.4c-0.1-0.2-0.2-0.3-0.4-0.3H20v-0.9H23.9z M23.3,29.9c0,0.8-1.5,1.7-3.7,1.7c-2.2,0-3.7-0.9-3.7-1.7
			c0-0.7,1.3-1.5,3.3-1.6v1.6c0,0.2,0.2,0.4,0.4,0.4c0.2,0,0.4-0.2,0.4-0.4v-1.6C22,28.4,23.3,29.2,23.3,29.9z M25.5,16l-1.9,1.9
			c-0.2,0.2-0.2,0.4,0,0.6l1.9,1.9h-10l-2.2-2.2l2.2-2.2H25.5z M13.7,13.5l1.9-1.9c0.2-0.2,0.2-0.4,0-0.6l-1.9-1.9h10l2.2,2.2
			l-2.2,2.2H13.7z"/>
	</g>
	<g id="concept" class="st1">
		<path class="st2" d="M20,13.9c-3.6,0-6.5,2.9-6.5,6.5c0,2,0.9,3.9,2.5,5.1c0,0,0.1,0.1,0.1,0.1c0,0,0.9,0.6,0.9,1.7c0,0,0,0,0,0
			c0,0,0,0,0,0l1.1,4.9c0,0.2,0.2,0.3,0.4,0.3h3.2c0.2,0,0.4-0.1,0.4-0.3l1.1-4.9c0,0,0,0,0,0c0,0,0,0,0,0c0-1.1,0.8-1.6,0.9-1.7
			c0,0,0.1-0.1,0.1-0.1c1.6-1.3,2.5-3.1,2.5-5.1C26.5,16.8,23.6,13.9,20,13.9z M21.2,31.8h-2.5l-0.1-0.4h2.7L21.2,31.8z M21.5,30.6
			h-3l-0.1-0.4h3.2L21.5,30.6z M21.8,29.4h-3.6l-0.4-1.6h4.3L21.8,29.4z M23.4,25C23.4,25,23.4,25.1,23.4,25c-0.4,0.3-1,0.9-1.2,1.9
			h-1.9v-5.7c0-0.4,0.4-0.8,0.8-0.8c0.2,0,0.4-0.2,0.4-0.4c0-0.2-0.2-0.4-0.4-0.4c-0.5,0-0.9,0.2-1.2,0.6c0,0,0-0.1-0.1-0.1
			c-0.3-0.3-0.7-0.5-1.1-0.5c0,0,0,0,0,0c-0.2,0-0.4,0.2-0.4,0.4c0,0.2,0.2,0.4,0.4,0.4c0,0,0,0,0,0c0,0,0,0,0,0
			c0.2,0,0.4,0.1,0.6,0.2c0.2,0.2,0.2,0.4,0.2,0.6v5.7h-1.9c-0.1-1-0.8-1.6-1.1-1.9c0,0-0.1-0.1-0.1-0.1c-1.5-1.1-2.3-2.8-2.3-4.6
			c0-3.2,2.6-5.7,5.7-5.7c3.2,0,5.7,2.6,5.7,5.7C25.7,22.2,24.9,23.9,23.4,25z"/>
		<path class="st2" d="M20.1,12.3c0.2,0,0.4-0.2,0.4-0.4V9.2c0-0.2-0.2-0.4-0.4-0.4c-0.2,0-0.4,0.2-0.4,0.4v2.8
			C19.7,12.1,19.9,12.3,20.1,12.3z"/>
		<path class="st2" d="M14,14.6c0.1,0.1,0.2,0.1,0.3,0.1c0.1,0,0.2,0,0.3-0.1c0.2-0.2,0.2-0.4,0-0.6l-1.9-1.9
			c-0.2-0.2-0.4-0.2-0.6,0c-0.2,0.2-0.2,0.4,0,0.6L14,14.6z"/>
		<path class="st2" d="M12.3,20.2c0-0.2-0.2-0.4-0.4-0.4H9.1c-0.2,0-0.4,0.2-0.4,0.4c0,0.2,0.2,0.4,0.4,0.4h2.8
			C12.1,20.6,12.3,20.4,12.3,20.2z"/>
		<path class="st2" d="M14,25.7l-2,1.9c-0.2,0.2-0.2,0.4,0,0.6c0.1,0.1,0.2,0.1,0.3,0.1c0.1,0,0.2,0,0.3-0.1l1.9-1.9
			c0.2-0.2,0.2-0.4,0-0.6C14.4,25.6,14.2,25.6,14,25.7z"/>
		<path class="st2" d="M26.3,26.1c-0.2-0.2-0.4-0.2-0.6,0c-0.2,0.2-0.2,0.4,0,0.6l1.9,2c0.1,0.1,0.2,0.1,0.3,0.1
			c0.1,0,0.2,0,0.3-0.1c0.2-0.2,0.2-0.4,0-0.6L26.3,26.1z"/>
		<path class="st2" d="M31.2,19.8l-2.8,0c-0.2,0-0.4,0.2-0.4,0.4c0,0.2,0.2,0.4,0.4,0.4l2.8,0c0.2,0,0.4-0.2,0.4-0.4
			C31.6,19.9,31.4,19.8,31.2,19.8z"/>
		<path class="st2" d="M26,14.7c0.1,0,0.2,0,0.3-0.1l1.9-1.9c0.2-0.2,0.2-0.4,0-0.6c-0.2-0.2-0.4-0.2-0.6,0L25.7,14
			c-0.2,0.2-0.2,0.4,0,0.6C25.8,14.7,25.9,14.7,26,14.7z"/>
	</g>
	<g id="infos" class="st1">
		<path class="st2" d="M31.1,8.9L24,11.6l-7.2-2.7c0,0,0,0,0,0c0,0-0.1,0-0.1,0s-0.1,0-0.1,0c0,0,0,0,0,0l-7.3,2.7
			C9.1,11.7,9,11.9,9,12v18.5c0,0.1,0.1,0.3,0.2,0.3c0.1,0,0.2,0.1,0.2,0.1c0.1,0,0.1,0,0.1,0l7.2-2.7l7.2,2.7c0,0,0.1,0,0.1,0
			s0.1,0,0.1,0l7.3-2.7c0.2-0.1,0.3-0.2,0.3-0.4V9.3c0-0.1-0.1-0.3-0.2-0.3C31.4,8.9,31.3,8.9,31.1,8.9z M16.3,27.5L9.8,30V12.3
			l6.5-2.4V27.5z M23.6,30l-6.5-2.4V9.9l6.5,2.4V30z M30.9,27.5L24.4,30V12.3l6.5-2.4V27.5z"/>
	</g>
	<g id="sponsor" class="st1">
		<path class="st2" d="M23.8,8.6c-1.5,0-2.9,0.4-4.2,1.3c-1.2-0.8-2.7-1.3-4.2-1.3c-2,0-3.8,0.8-5.2,2.1C8.9,12.2,8.1,14,8.1,16
			c0,2,0.8,3.8,2.1,5.2l9.4,10.7l9.3-10.7c2.9-2.9,2.9-7.5,0-10.4C27.5,9.4,25.7,8.6,23.8,8.6z M28.3,20.6l-8.7,10l-8.8-10
			c-1.2-1.2-1.9-2.9-1.9-4.6c0-1.7,0.7-3.4,1.9-4.6c1.2-1.2,2.9-1.9,4.6-1.9c1.4,0,2.8,0.5,3.9,1.3l0.2,0.2l0.2-0.2
			c1.1-0.9,2.5-1.3,3.9-1.3c1.7,0,3.4,0.7,4.6,1.9C30.9,13.9,30.9,18,28.3,20.6z"/>
	</g>
</g>
<g id="themify">
	<path id="link" class="st2" d="M25,17.9L24,18.9l-0.7-0.7l0.9-0.9c1-1,1-2.6,0-3.5c-1-1-2.6-1-3.5,0l-3,3c-1,1-1,2.6,0,3.5
		c1,1,2.6,1,3.5,0l0.7,0.7c-0.7,0.7-1.6,1-2.5,1s-1.8-0.3-2.5-1c-1.4-1.4-1.4-3.6,0-4.9l3-3c1.4-1.4,3.6-1.4,4.9,0
		C26.3,14.4,26.3,16.6,25,17.9z M18,19l-0.1,0.1l0.7,0.7l0.1-0.1c1-1,2.6-1,3.5,0c1,1,1,2.6,0,3.5l-3,3c-1,1-2.6,1-3.5,0
		s-1-2.6,0-3.5l1.1-1.1L16.1,21L15,22.1c-1.4,1.4-1.4,3.6,0,4.9c0.7,0.7,1.6,1,2.5,1s1.8-0.3,2.5-1l3-3c1.4-1.4,1.4-3.6,0-4.9
		C21.6,17.7,19.4,17.7,18,19z"/>
	<path id="sponsor_1_" class="st3" d="M23.5,12.7c-1.7,0-3.3,1-4,2.4c-0.7-1.4-2.3-2.4-4-2.4c-2.5,0-4.5,2-4.5,4.5
		c0,0.3,0,0.7,0.2,1.1l0.1,0.4c1.4,4.4,7.7,9.4,7.9,9.6l0.3,0.3l0.3-0.3c0.3-0.2,6.9-5.6,7.9-9.6l0.1-0.4c0.1-0.4,0.1-0.7,0.1-1.1
		C28,14.7,26,12.7,23.5,12.7z M26.9,18l-0.1,0.4c-0.8,3.2-5.9,7.7-7.3,8.8c-1.3-1.1-6.1-5.3-7.3-8.9L12.1,18
		C12,17.7,12,17.4,12,17.2c0-1.9,1.6-3.5,3.5-3.5s3.5,1.6,3.5,3.5v0.3h1v-0.3c0-1.9,1.6-3.5,3.5-3.5s3.5,1.6,3.5,3.5
		C27,17.4,27,17.7,26.9,18z"/>
	<path id="info" class="st3" d="M27,16L27,16L27,16l-1,0.2c-0.1-1.8-1.6-3.2-3.5-3.2c-1.8,0-3.3,1.4-3.5,3.2L18,16v0h-6v11h5.3
		l5.2,1.5l5.5-1.6V16C28,16,27,16,27,16z M22.5,14c1.4,0,2.5,1.1,2.5,2.5c0,1.8-1.7,4.2-2.5,5.2c-0.8-1-2.5-3.4-2.5-5.2
		C20,15.1,21.1,14,22.5,14z M18,17l1.1,0.2c0.4,2.3,2.4,4.8,2.9,5.4v4.6l-4-1.1C18,26.1,18,17,18,17z M13,17h4v9l-4,0V17z M23,27.3
		v-4.6c0.5-0.6,2.5-3.1,2.9-5.4L27,17v9.1C27,26.1,23,27.3,23,27.3z M23.9,16.6c0-0.7-0.6-1.4-1.4-1.4s-1.4,0.6-1.4,1.4
		s0.6,1.4,1.4,1.4S23.9,17.3,23.9,16.6z M22.1,16.6c0-0.2,0.2-0.4,0.4-0.4s0.4,0.2,0.4,0.4s-0.2,0.4-0.4,0.4S22.1,16.8,22.1,16.6z"
		/>
	<path id="atelier" class="st3" d="M20,18h4.7l1.9-2.6L24.7,13H20v-1h-1v1h-6v5h6v2h-4.7l-1.9,2.4l1.9,2.6H19v4h1v-4h6v-5h-6V18z
		 M14,14h10.2l1.2,1.5L24.2,17H14C14,17,14,14,14,14z M25,24H14.8l-1.2-1.5l1.2-1.5H25V24z"/>
	<path id="concept_1_" class="st3" d="M28,14v1H11v-1H28z M12.5,18v1h14v-1H12.5z M11,23h17v-1H11V23z M14.5,27h10v-1h-10V27z"/>
</g>
</svg>
